<svg xmlns="http://www.w3.org/2000/svg" width="54.223" height="47.013" viewBox="0 0 54.223 47.013">
  <g id="car-garage" transform="translate(59.182 61.647) rotate(-180)">
    <g id="Grupo_1" data-name="Grupo 1" transform="translate(4.96 14.634)">
      <path id="Caminho_2" data-name="Caminho 2" d="M56.8,34.477a2.775,2.775,0,0,0-2.721-2.3H52.543l-.585-6.094A12.6,12.6,0,0,0,39.375,14.634H24.769A12.607,12.607,0,0,0,12.185,26.082L11.6,32.176H10.059a2.779,2.779,0,0,0-2.724,2.3l-2.293,13a5.555,5.555,0,0,0,5.284,6.5v2.158a5.5,5.5,0,0,0,5.507,5.518h1.739a5.527,5.527,0,0,0,5.541-5.518V54.006H41.046v2.118a5.513,5.513,0,0,0,5.521,5.522h1.741a5.516,5.516,0,0,0,5.524-5.522V53.971A5.539,5.539,0,0,0,59.1,47.486ZM15.173,48.993a4.672,4.672,0,1,1,4.673-4.671A4.669,4.669,0,0,1,15.173,48.993Zm1.165-16.816.54-5.622a7.893,7.893,0,0,1,7.892-7.166h.842v1.767a2.736,2.736,0,0,0,2.75,2.754h7.422a2.754,2.754,0,0,0,2.771-2.754V19.391h.821a7.891,7.891,0,0,1,7.89,7.166l.541,5.622-31.468,0ZM48.965,48.993a4.672,4.672,0,1,1,4.673-4.671A4.669,4.669,0,0,1,48.965,48.993Z" transform="translate(-4.96 -14.634)" fill="#fff"/>
    </g>
  </g>
</svg>
